<svg xmlns="http://www.w3.org/2000/svg" xmlns:xlink="http://www.w3.org/1999/xlink" version="1.1" width="1000" height="1000" viewBox="0 0 1000 1000" xml:space="preserve">
<desc>Created with Fabric.js 3.5.0</desc>
<defs>
</defs>
<rect x="0" y="0" width="100%" height="100%" fill="rgba(255,255,255,0)"/>
<g transform="matrix(9.0009 0 0 9.0009 499.9999 499.9999)" id="210832">
<g style="" vector-effect="non-scaling-stroke">
		<g transform="matrix(1 0 0 1 -2.0196 -21.0787)" id="Fill-1">
<path style="stroke: none; stroke-width: 1; stroke-dasharray: none; stroke-linecap: butt; stroke-dashoffset: 0; stroke-linejoin: miter; stroke-miterlimit: 4; is-custom-font: none; font-file-url: none; fill: rgb(255,255,255); fill-rule: evenodd; opacity: 1;" transform=" translate(-6.4804, -4.9213)" d="M 11.1125 1.495 C 11.2375 1.4 11.3355 1.348 11.4065 1.334 C 11.5375 1.315 11.5225 1.453 11.3585 1.749 L 9.4765 5.116 C 8.8025 6.282 8.5795 7.281 8.8055 8.112 L 8.9105 8.396 C 9.0385 8.676 9.2195 8.91 9.4445 9.109 C 9.8785 9.028 9.8395 8.761 9.7365 8.556 C 9.5745 8.384 9.4515 8.187 9.3825 7.951 C 9.3375 7.805 9.3155 7.646 9.3155 7.473 C 9.3175 7.279 9.3385 7.086 9.3765 6.896 C 9.4185 6.686 9.4905 6.454 9.5945 6.202 C 9.7085 5.929 9.8395 5.664 9.9865 5.408 L 12.2945 1.296 L 12.6995 0.587 C 12.7885 0.484 12.7885 0.331 12.6995 0.228 C 12.6435 0.158 12.5645 0.12 12.4635 0.114 C 12.4195 0.114 12.3725 0.127 12.3225 0.152 C 12.0525 0.253 11.7645 0.39 11.4615 0.558 C 9.9105 1.453 8.4145 3 6.9705 5.201 C 6.9175 5.278 6.8535 5.347 6.7825 5.408 C 6.6815 5.471 6.6605 5.374 6.7155 5.116 L 7.2165 2.876 C 7.3745 2.27 7.5405 1.806 7.7175 1.485 C 7.8625 1.22 8.0295 1.028 8.2185 0.908 C 8.4065 0.839 8.5815 0.713 8.6495 0.533 C 8.7095 0.251 8.5835 0.108 8.5585 0.095 C 7.9845 -0.377 6.6845 1.055 6.6845 1.055 C 6.4455 1.333 6.0885 1.789 5.7225 2.431 L 3.4645 6.448 C 2.8725 7.406 2.3615 8.097 1.9325 8.519 C 1.4655 8.96 0.9785 9.202 0.4675 9.246 C 0.4675 9.246 0.1615 9.318 0.1975 9.551 C 0.2215 9.706 0.2605 9.843 0.5055 9.843 C 0.6745 9.843 1.7665 9.493 2.3395 8.945 C 2.7985 8.496 3.3445 7.769 3.9745 6.761 L 3.9745 6.741 L 6.2345 2.724 L 6.5935 2.119 C 6.6495 2.031 6.7065 1.977 6.7635 1.958 C 6.8395 1.939 6.8485 2.018 6.7915 2.195 L 6.6405 2.724 L 6.1295 5.011 L 5.5715 7.574 C 5.5655 7.602 5.5625 7.63 5.5625 7.659 L 5.5625 7.668 L 5.5625 7.678 L 5.5625 7.725 C 5.5875 7.864 5.6665 7.942 5.7985 7.961 C 5.8105 7.967 5.8235 7.97 5.8365 7.97 C 5.9815 7.976 6.0785 7.914 6.1285 7.782 C 7.6795 4.857 9.3395 2.76 11.1115 1.494" stroke-linecap="round"/>
</g>
		<g transform="matrix(1 0 0 1 3.8127 -17.5674)" id="Fill-4">
<path style="stroke: none; stroke-width: 1; stroke-dasharray: none; stroke-linecap: butt; stroke-dashoffset: 0; stroke-linejoin: miter; stroke-miterlimit: 4; is-custom-font: none; font-file-url: none; fill: rgb(255,255,255); fill-rule: evenodd; opacity: 1;" transform=" translate(-54.3127, -8.4325)" d="M 53.3353 10.943 L 52.4793 10.998 C 51.3173 11.047 50.4153 11.099 50.2313 11.897 L 50.2163 12.032 C 50.2093 12.224 50.2493 12.423 50.3693 12.588 C 50.5033 12.769 50.7033 12.9 51.0203 12.969 C 51.0943 12.994 51.1853 13.004 51.2763 13.017 C 51.7653 13.064 52.1313 12.839 52.4143 12.516 C 52.7513 12.141 53.0113 11.604 53.2723 11.082 L 53.3343 10.943 L 53.3353 10.943 Z M 59.0183 7.243 C 58.3873 8.301 57.7453 9.059 57.0663 9.6 C 56.3863 10.158 55.6703 10.487 54.9383 10.679 C 54.6663 10.766 54.3833 10.82 54.0993 10.858 L 53.8573 11.35 C 53.5793 11.914 53.2963 12.492 52.9073 12.922 C 52.4833 13.407 51.9563 13.7 51.2223 13.637 C 51.1013 13.623 50.9933 13.61 50.8893 13.581 C 50.4063 13.474 50.0643 13.237 49.8483 12.955 C 49.6363 12.66 49.5523 12.306 49.5763 11.964 L 49.5993 11.757 C 49.8823 10.491 50.9993 10.437 52.4423 10.364 L 53.6563 10.277 L 54.4073 8.725 C 54.0393 8.979 53.6163 9.004 53.1913 8.95 L 53.1753 8.948 L 53.1613 8.946 C 52.7493 8.895 52.4953 8.684 52.3413 8.41 C 52.2163 8.155 52.1353 7.899 52.2223 7.572 L 52.7473 6.214 L 53.3263 5.058 L 54.1953 3.383 C 54.2743 3.228 54.4653 3.177 54.6263 3.257 C 54.7883 3.337 54.8423 3.525 54.7633 3.678 L 53.9083 5.357 L 53.3333 6.482 L 52.8753 7.654 C 52.8163 7.815 52.8363 7.994 52.9283 8.139 C 52.9803 8.234 53.0783 8.307 53.2453 8.328 L 53.2623 8.331 C 54.2043 8.449 54.8513 7.644 55.4773 6.616 L 55.4983 6.573 C 55.5143 6.56 55.5143 6.56 55.5163 6.546 L 55.7723 6.07 L 56.9743 3.777 L 56.9913 3.765 L 56.9913 3.75 C 57.0713 3.595 57.2653 3.53 57.4223 3.624 C 57.5833 3.705 57.6553 3.893 57.5753 4.049 L 57.5573 4.06 L 57.5553 4.074 L 56.3413 6.35 L 55.2843 8.446 L 54.4423 10.149 L 54.7593 10.071 C 55.4123 9.899 56.0323 9.603 56.6443 9.11 C 57.2703 8.622 57.8753 7.919 58.4503 6.93 C 58.5313 6.775 58.7363 6.725 58.8803 6.82 C 59.0423 6.9 59.0953 7.1 59.0183 7.24 L 59.0183 7.243 Z" stroke-linecap="round"/>
</g>
		<g transform="matrix(1 0 0 1 -0.201 0.6059)" id="Fill-6">
<path style="stroke: none; stroke-width: 1; stroke-dasharray: none; stroke-linecap: butt; stroke-dashoffset: 0; stroke-linejoin: miter; stroke-miterlimit: 4; is-custom-font: none; font-file-url: none; fill: rgb(255,255,255); fill-rule: evenodd; opacity: 1;" transform=" translate(-50.299, -6.6059)" d="M 100.5725 12.7749 C 100.6065 12.7749 100.6065 12.4969 100.5725 12.4969 L 98.9545 12.4969 C 98.8845 12.4969 98.8145 12.4629 98.7975 12.4449 L 95.0045 5.4839 L 97.3355 1.4469 C 97.7195 0.7849 97.8405 0.7169 97.8925 0.7169 L 99.4415 0.7169 C 99.4755 0.7169 99.4755 0.4379 99.4415 0.4379 L 95.9435 0.4379 C 95.9095 0.4379 95.9095 0.7169 95.9435 0.7169 L 97.2835 0.7169 C 97.4745 0.7169 97.4575 0.7679 97.0565 1.4469 L 94.8645 5.2059 L 92.4625 0.7849 C 92.4625 0.7509 92.4625 0.7169 92.5325 0.7169 L 94.1155 0.7169 C 94.1495 0.7169 94.1495 0.4379 94.1155 0.4379 L 88.3215 0.4379 C 88.2855 0.4379 88.2855 0.7169 88.3215 0.7169 L 89.9565 0.7169 C 90.0095 0.7169 90.0785 0.7509 90.0955 0.7849 L 93.5765 7.1199 L 90.8795 11.7659 C 90.5135 12.4449 90.3575 12.4969 90.3215 12.4969 L 88.7725 12.4969 C 88.7385 12.4969 88.7385 12.7749 88.7725 12.7749 L 92.2715 12.7749 C 92.3055 12.7749 92.3055 12.4969 92.2715 12.4969 L 90.9135 12.4969 C 90.7565 12.4969 90.7745 12.4449 91.1745 11.7659 L 93.7155 7.4159 L 96.4305 12.4449 C 96.4465 12.4629 96.4305 12.4969 96.3765 12.4969 L 94.7765 12.4969 C 94.7415 12.4969 94.7415 12.7749 94.7765 12.7749 L 100.5715 12.7749 L 100.5725 12.7749 Z M 84.9105 6.6149 C 84.9105 10.0259 84.5275 11.3299 83.7275 12.1479 C 83.2045 12.6539 82.5615 12.8109 81.7965 12.8109 C 81.0315 12.8109 80.4035 12.6539 79.8985 12.1479 C 79.0795 11.3309 78.6985 10.0259 78.6985 6.6149 C 78.6985 3.6389 79.0795 1.8819 79.8985 1.0639 C 80.4035 0.5759 81.0295 0.4189 81.7965 0.4189 C 82.5635 0.4189 83.2045 0.5759 83.7275 1.0639 C 84.5285 1.8809 84.9105 3.6389 84.9105 6.6149 Z M 87.2775 6.6149 C 87.2775 3.0309 84.8415 0.1409 81.7975 0.1409 C 78.6285 0.1409 76.3315 3.1519 76.3315 6.6149 C 76.3315 10.1819 78.7855 13.0709 81.7975 13.0709 C 84.8425 13.0709 87.2775 10.1819 87.2775 6.6149 Z M 71.6155 9.6089 C 71.6155 11.8869 70.9555 12.4969 69.3885 12.4969 L 68.0665 12.4969 C 67.9965 12.4969 67.9625 12.4789 67.9625 12.4269 L 67.9625 6.3199 L 69.1455 6.3199 C 70.8335 6.3199 71.6155 6.8229 71.6155 9.6099 L 71.6155 9.6089 Z M 70.9385 3.3609 C 70.9385 5.5019 70.5385 6.0579 69.3185 6.0579 L 67.9625 6.0579 L 67.9625 0.7859 C 67.9625 0.7339 67.9965 0.7179 68.0665 0.7179 L 68.7615 0.7179 C 70.4155 0.7179 70.9385 1.3079 70.9385 3.3609 Z M 73.7745 9.5029 C 73.7745 7.4319 71.9815 6.1969 69.8935 6.1969 C 71.3035 6.1969 72.9395 4.9619 72.9395 3.2909 C 72.9395 1.3599 71.1645 0.4379 69.0405 0.4379 L 64.2035 0.4379 C 64.1495 0.4379 64.1495 0.7159 64.2035 0.7159 L 65.6825 0.7159 C 65.7345 0.7159 65.7695 0.7319 65.7695 0.7839 L 65.7695 12.4279 C 65.7695 12.4809 65.7345 12.4979 65.6825 12.4979 L 64.2035 12.4979 C 64.1495 12.4979 64.1495 12.7759 64.2035 12.7759 L 69.8405 12.7759 C 72.4685 12.7759 73.7745 11.1569 73.7745 9.5039 L 73.7745 9.5029 Z M 53.9005 8.4249 L 50.2455 8.4249 L 52.0915 3.0639 L 53.9005 8.4249 Z M 59.1915 12.7749 C 59.2265 12.7749 59.2265 12.4969 59.1915 12.4969 L 57.7305 12.4969 C 57.6605 12.4969 57.6085 12.4629 57.5915 12.4449 L 53.1365 0.1939 C 53.1185 0.1409 52.8755 0.1409 52.8585 0.1939 L 48.8195 11.7669 C 48.5945 12.4459 48.5585 12.4979 48.4015 12.4979 L 47.0975 12.4979 C 47.0625 12.4979 47.0625 12.7759 47.0975 12.7759 L 50.3855 12.7759 C 50.4395 12.7759 50.4395 12.4979 50.3855 12.4979 L 48.9425 12.4979 C 48.8555 12.4979 48.8725 12.3929 49.0815 11.7669 L 50.1605 8.7029 L 53.9895 8.7029 L 55.2595 12.4459 C 55.2765 12.4629 55.2415 12.4979 55.1895 12.4979 L 53.6755 12.4979 C 53.6405 12.4979 53.6405 12.7759 53.6755 12.7759 L 59.1915 12.7759 L 59.1915 12.7749 Z M 46.5055 0.7169 C 46.5415 0.7169 46.5415 0.4379 46.5055 0.4379 L 41.1625 0.4379 C 41.1285 0.4379 41.1285 0.7169 41.1625 0.7169 L 42.6595 0.7169 C 42.7115 0.7169 42.7465 0.7329 42.7465 0.7849 L 42.7465 11.3839 C 42.7465 12.3409 42.3815 12.8109 41.5465 12.8109 C 40.9885 12.8109 40.3975 12.3059 40.3975 11.7479 C 40.3975 10.9839 41.1815 11.2099 41.1815 10.1819 C 41.1815 9.4689 40.6245 8.8589 39.9625 8.8589 C 39.3365 8.8589 38.6225 9.4519 38.6225 10.4079 C 38.6225 11.7129 40.0145 13.0699 41.5465 13.0699 C 43.6175 13.0699 44.9225 11.8869 44.9225 9.8679 L 44.9225 0.7859 C 44.9225 0.7339 44.9565 0.7179 45.0275 0.7179 L 46.5055 0.7179 L 46.5055 0.7169 Z M 34.1685 6.6149 C 34.1685 10.0259 33.7855 11.3299 32.9845 12.1479 C 32.4635 12.6539 31.8195 12.8109 31.0535 12.8109 C 30.2865 12.8109 29.6605 12.6539 29.1565 12.1479 C 28.3385 11.3309 27.9555 10.0259 27.9555 6.6149 C 27.9555 3.6389 28.3385 1.8819 29.1565 1.0639 C 29.6605 0.5759 30.2875 0.4189 31.0535 0.4189 C 31.8185 0.4189 32.4625 0.5759 32.9845 1.0639 C 33.7855 1.8809 34.1685 3.6389 34.1685 6.6149 L 34.1685 6.6149 Z M 36.5345 6.6149 C 36.5345 3.0309 34.0985 0.1409 31.0535 0.1409 C 27.8865 0.1409 25.5895 3.1519 25.5895 6.6149 C 25.5895 10.1819 28.0425 13.0709 31.0535 13.0709 C 34.0985 13.0709 36.5345 10.1819 36.5345 6.6149 Z M 20.5595 6.6149 C 20.5595 10.0259 20.1765 11.3299 19.3755 12.1479 C 18.8545 12.6539 18.2105 12.8109 17.4435 12.8109 C 16.6775 12.8109 16.0525 12.6539 15.5475 12.1479 C 14.7305 11.3309 14.3465 10.0259 14.3465 6.6149 C 14.3465 3.6389 14.7305 1.8819 15.5475 1.0639 C 16.0525 0.5759 16.6785 0.4189 17.4435 0.4189 C 18.2095 0.4189 18.8535 0.5759 19.3755 1.0639 C 20.1765 1.8809 20.5595 3.6389 20.5595 6.6149 L 20.5595 6.6149 Z M 22.9265 6.6149 C 22.9265 3.0309 20.4895 0.1409 17.4445 0.1409 C 14.2775 0.1409 11.9805 3.1519 11.9805 6.6149 C 11.9805 10.1819 14.4345 13.0709 17.4445 13.0709 C 20.4895 13.0709 22.9265 10.1819 22.9265 6.6149 Z M 7.4905 4.2309 C 7.4905 6.7359 6.9515 7.4859 5.3855 7.4859 C 4.6715 7.4859 4.2885 7.4319 3.8015 7.2069 L 3.8015 0.7859 C 3.8015 0.7339 3.8365 0.7179 3.8885 0.7179 L 5.0025 0.7179 C 6.5685 0.7179 7.4905 1.7079 7.4905 4.2319 L 7.4905 4.2309 Z M 9.6485 4.2309 C 9.6485 2.1079 8.0125 0.4379 5.0025 0.4379 L 0.0255 0.4379 C -0.0085 0.4379 -0.0085 0.7169 0.0255 0.7169 L 1.5225 0.7169 C 1.5565 0.7169 1.5915 0.7329 1.5915 0.7849 L 1.5915 12.4279 C 1.5915 12.4809 1.5575 12.4979 1.5225 12.4979 L 0.0255 12.4979 C -0.0085 12.4979 -0.0085 12.7759 0.0255 12.7759 L 5.3685 12.7759 C 5.4025 12.7759 5.4025 12.4979 5.3685 12.4979 L 3.8885 12.4979 C 3.8365 12.4979 3.8015 12.4799 3.8015 12.4279 L 3.8015 7.5559 C 4.2545 7.6769 4.6895 7.7639 5.3855 7.7639 C 8.0305 7.7639 9.6485 6.3369 9.6485 4.2319 L 9.6485 4.2309 Z" stroke-linecap="round"/>
</g>
		<g transform="matrix(1 0 0 1 0.0153 21.2093)" id="Fill-9">
<path style="stroke: none; stroke-width: 1; stroke-dasharray: none; stroke-linecap: butt; stroke-dashoffset: 0; stroke-linejoin: miter; stroke-miterlimit: 4; is-custom-font: none; font-file-url: none; fill: rgb(255,255,255); fill-rule: evenodd; opacity: 1;" transform=" translate(-50.5153, -47.2093)" d="M 87.2643 49.2108 C 88.1593 49.2108 88.8203 48.8808 89.1293 48.5988 L 89.1293 46.7318 L 87.1583 46.7318 L 87.1583 47.3868 L 88.4463 47.3868 L 88.4463 48.2328 C 88.1793 48.4168 87.7573 48.5418 87.2633 48.5418 C 86.1793 48.5418 85.4753 47.7748 85.4753 46.7538 C 85.4753 45.7338 86.1723 44.9708 87.1723 44.9708 C 87.7413 44.9708 88.0943 45.1558 88.3683 45.4428 L 88.8683 44.9438 C 88.4803 44.5068 87.9043 44.3028 87.1723 44.3028 C 85.7493 44.3028 84.7143 45.3238 84.7143 46.7538 C 84.7143 48.1838 85.7703 49.2098 87.2633 49.2098 L 87.2643 49.2108 Z M 82.9823 49.1978 L 83.0743 49.1978 L 83.0743 44.3598 L 82.3833 44.3598 L 82.3833 46.9938 C 82.3893 47.2248 82.4063 47.4548 82.4333 47.6828 L 81.9893 47.1488 L 79.3493 44.3108 L 79.2503 44.3108 L 79.2503 49.1478 L 79.9413 49.1478 L 79.9413 46.5068 C 79.9413 46.2098 79.8913 45.8168 79.8913 45.8168 L 80.3423 46.3508 L 82.9833 49.1968 L 82.9823 49.1978 Z M 76.6303 49.1478 L 77.3703 49.1478 L 77.3703 44.3588 L 76.6303 44.3588 L 76.6303 49.1478 Z M 72.9323 49.1478 L 73.6723 49.1478 L 73.6723 45.0148 L 75.0953 45.0148 L 75.0953 44.3598 L 71.5113 44.3598 L 71.5113 45.0148 L 72.9323 45.0148 L 72.9323 49.1478 Z M 67.2143 49.1478 L 67.9613 49.1478 L 67.9613 47.5978 L 69.9893 47.5978 L 69.9893 46.9358 L 67.9613 46.9358 L 67.9613 45.0128 L 70.1943 45.0128 L 70.1943 44.3578 L 67.2143 44.3578 L 67.2143 49.1468 L 67.2143 49.1478 Z M 64.5953 49.1478 L 65.3353 49.1478 L 65.3353 44.3588 L 64.5953 44.3588 L 64.5953 49.1478 Z M 60.9743 49.2108 C 61.8693 49.2108 62.5313 48.8808 62.8413 48.5988 L 62.8413 46.7318 L 60.8693 46.7318 L 60.8693 47.3868 L 62.1583 47.3868 L 62.1583 48.2328 C 61.8903 48.4168 61.4673 48.5418 60.9733 48.5418 C 59.8903 48.5418 59.1853 47.7748 59.1853 46.7538 C 59.1853 45.7338 59.8833 44.9708 60.8833 44.9708 C 61.4533 44.9708 61.8053 45.1558 62.0793 45.4428 L 62.5793 44.9438 C 62.1913 44.5068 61.6143 44.3028 60.8833 44.3028 C 59.4603 44.3028 58.4253 45.3238 58.4253 46.7538 C 58.4253 48.1838 59.4813 49.2098 60.9733 49.2098 L 60.9743 49.2108 Z M 56.7043 43.3808 C 56.7113 42.8568 56.2913 42.4258 55.7673 42.4188 C 55.7443 42.4188 55.7223 42.4198 55.6993 42.4208 C 54.7393 42.4208 53.9233 43.3538 53.4983 44.7028 C 53.4253 44.8748 53.4083 44.9838 53.3343 45.2088 L 52.4113 45.2088 C 52.3933 45.2088 52.3113 45.4168 52.3303 45.4168 L 53.2723 45.4168 L 52.0853 50.0088 C 51.6143 51.4488 51.4243 51.7828 50.9723 51.7828 C 50.7823 51.7828 50.5913 51.6838 50.5913 51.4928 C 50.5913 51.3388 50.7723 51.1588 50.7723 50.9508 C 50.7723 50.7508 50.6553 50.6068 50.3743 50.6068 C 50.1313 50.6068 49.9233 50.8068 49.9233 51.1228 C 49.9233 51.5848 50.3923 51.9998 50.9183 51.9998 C 51.9323 51.9998 52.5383 51.0228 53.0003 49.6548 L 54.1513 45.4178 L 55.2193 45.4178 C 55.2283 45.4178 55.2913 45.2088 55.2733 45.2088 L 54.2143 45.2088 L 54.4043 44.5498 C 54.9293 42.8818 55.2923 42.6378 55.6363 42.6378 C 55.8993 42.6378 56.0253 42.7738 56.0253 42.9918 C 56.0253 43.1448 55.8543 43.3358 55.8543 43.5618 C 55.8543 43.7438 55.9613 43.8788 56.2513 43.8788 C 56.5053 43.8788 56.7053 43.6888 56.7053 43.3808 L 56.7043 43.3808 Z M 49.8223 46.2148 C 49.8223 46.6948 49.4423 48.0618 49.2433 48.4248 C 49.0163 48.8138 48.7443 49.0228 48.3273 49.0228 C 47.8023 49.0228 47.6763 48.6888 47.6763 48.2438 C 47.6763 47.7638 48.0563 46.3878 48.2563 46.0338 C 48.4723 45.6438 48.7363 45.4368 49.1793 45.4368 C 49.6863 45.4368 49.8213 45.7798 49.8213 46.2148 L 49.8223 46.2148 Z M 50.6103 46.7398 C 50.6103 45.8428 50.0113 45.2188 49.1973 45.2188 C 47.9833 45.2188 46.8883 46.4128 46.8883 47.7178 C 46.8883 48.6138 47.4943 49.2288 48.3093 49.2288 C 49.5233 49.2288 50.6093 48.0248 50.6093 46.7398 L 50.6103 46.7398 Z M 41.1113 49.1478 L 41.8513 49.1478 L 41.8513 45.0148 L 43.2743 45.0148 L 43.2743 44.3598 L 39.6903 44.3598 L 39.6903 45.0148 L 41.1123 45.0148 L 41.1123 49.1478 L 41.1113 49.1478 Z M 35.8933 47.2748 L 35.8933 45.0148 L 36.3153 45.0148 C 37.2523 45.0148 37.6463 45.4298 37.6463 46.1488 C 37.6463 46.8588 37.2673 47.2748 36.3153 47.2748 C 36.3153 47.2748 35.8933 47.2748 35.8933 47.2748 L 35.8933 47.2748 Z M 37.4493 47.6698 C 38.0763 47.3948 38.4073 46.8868 38.4073 46.1488 C 38.4073 45.0488 37.6673 44.3598 36.3443 44.3598 L 35.1473 44.3598 L 35.1473 49.1478 L 35.8933 49.1478 L 35.8933 47.9158 L 36.3443 47.9158 C 36.4783 47.9158 36.6123 47.9018 36.7463 47.8868 L 37.6053 49.1478 L 38.4643 49.1478 L 37.4503 47.6698 L 37.4493 47.6698 Z M 30.6743 47.8458 L 31.2733 46.3518 C 31.3943 46.0698 31.5063 45.6408 31.5063 45.6408 C 31.5063 45.6408 31.6253 46.0698 31.7463 46.3518 L 32.3443 47.8458 L 30.6753 47.8458 L 30.6743 47.8458 Z M 29.4283 49.1478 L 30.1473 49.1478 L 30.4223 48.4718 L 32.6123 48.4718 L 32.8873 49.1478 L 33.6613 49.1478 L 31.5633 44.3098 L 31.4783 44.3098 L 29.4293 49.1478 L 29.4283 49.1478 Z M 22.6463 49.1478 L 25.7883 49.1478 L 25.7883 48.4928 L 23.3943 48.4928 L 23.3943 47.5138 L 25.4293 47.5138 L 25.4293 46.8728 L 23.3943 46.8728 L 23.3943 45.0138 L 25.6893 45.0138 L 25.6893 44.3588 L 22.6463 44.3588 L 22.6463 49.1478 Z M 16.9913 49.1478 L 17.7393 49.1478 L 17.7393 47.5978 L 20.0413 47.5978 L 20.0413 49.1468 L 20.7883 49.1468 L 20.7883 44.3578 L 20.0413 44.3578 L 20.0413 46.9358 L 17.7393 46.9358 L 17.7393 44.3578 L 16.9913 44.3578 L 16.9913 49.1468 L 16.9913 49.1478 Z M 13.3233 49.1478 L 14.0633 49.1478 L 14.0633 45.0138 L 15.4853 45.0138 L 15.4853 44.3588 L 11.9013 44.3588 L 11.9013 45.0138 L 13.3243 45.0138 L 13.3243 49.1478 L 13.3233 49.1478 Z" stroke-linecap="round"/>
</g>
</g>
</g>
</svg>